<svg width="1024" height="1024" viewBox="0 0 1024 1024" fill="none" xmlns="http://www.w3.org/2000/svg">
<rect width="215.147" height="48.0493" transform="matrix(0.753293 0.657685 -0.596728 0.802444 374.277 299)" fill="#3F8CFF"/>
<rect width="213.895" height="48.1625" transform="matrix(-0.773565 0.633717 -0.572229 -0.820094 672.361 343.403)" fill="#3F8CFF"/>
<rect width="423.705" height="73.731" transform="matrix(0.00366008 0.999993 -0.999991 0.00429716 376.73 299.713)" fill="#3F8CFF"/>
<rect width="423.705" height="115.26" transform="matrix(0.00366008 0.999993 -0.999991 0.00429716 694.092 299.802)" fill="#3F8CFF"/>
<rect width="423.705" height="11.4589" transform="matrix(0.00366008 0.999993 -0.999991 0.00429716 718.449 299.802)" fill="#3F8CFF"/>
<rect width="52.6767" height="99.974" transform="matrix(0.00366008 0.999993 -0.999991 0.00429716 719.621 308.987)" fill="#3F8CFF"/>
<rect width="52.6767" height="99.974" transform="matrix(0.00366008 0.999993 -0.999991 0.00429716 719.621 396.723)" fill="#3F8CFF"/>
<rect width="52.6767" height="99.974" transform="matrix(0.00366008 0.999993 -0.999991 0.00429716 719.621 484.46)" fill="#3F8CFF"/>
<rect width="52.6767" height="99.974" transform="matrix(0.00366008 0.999993 -0.999991 0.00429716 719.621 572.197)" fill="#3F8CFF"/>
<rect width="52.6767" height="99.974" transform="matrix(0.00366008 0.999993 -0.999991 0.00429716 719.621 659.934)" fill="#3F8CFF"/>
</svg>
